<svg xmlns="http://www.w3.org/2000/svg" xmlns:xlink="http://www.w3.org/1999/xlink" width="512" zoomAndPan="magnify" viewBox="0 0 384 383.999986" height="512" preserveAspectRatio="xMidYMid meet" version="1.0"><defs><clipPath id="86cbf0f336"><path d="M 51.425781 51.425781 L 332.574219 51.425781 L 332.574219 332.574219 L 51.425781 332.574219 Z M 51.425781 51.425781 " clip-rule="nonzero"/></clipPath><clipPath id="d711d78691"><path d="M 192 51.425781 C 114.363281 51.425781 51.425781 114.363281 51.425781 192 C 51.425781 269.636719 114.363281 332.574219 192 332.574219 C 269.636719 332.574219 332.574219 269.636719 332.574219 192 C 332.574219 114.363281 269.636719 51.425781 192 51.425781 Z M 192 51.425781 " clip-rule="nonzero"/></clipPath><clipPath id="13edd5a73c"><path d="M 0.425781 0.425781 L 281.574219 0.425781 L 281.574219 281.574219 L 0.425781 281.574219 Z M 0.425781 0.425781 " clip-rule="nonzero"/></clipPath><clipPath id="01f2412678"><path d="M 141 0.425781 C 63.363281 0.425781 0.425781 63.363281 0.425781 141 C 0.425781 218.636719 63.363281 281.574219 141 281.574219 C 218.636719 281.574219 281.574219 218.636719 281.574219 141 C 281.574219 63.363281 218.636719 0.425781 141 0.425781 Z M 141 0.425781 " clip-rule="nonzero"/></clipPath><linearGradient x1="0.000000762672" gradientTransform="matrix(1.098245, 0, 0, 1.098245, 0.424694, 0.424687)" y1="128" x2="255.999996" gradientUnits="userSpaceOnUse" y2="128" id="aa11b10994"><stop stop-opacity="1" stop-color="rgb(0%, 29.019165%, 67.83905%)" offset="0"/><stop stop-opacity="1" stop-color="rgb(79.60968%, 42.349243%, 90.19928%)" offset="1"/></linearGradient><clipPath id="a5628dbaab"><rect x="0" width="282" y="0" height="282"/></clipPath><clipPath id="fcee2f398e"><path d="M 127.8125 171.324219 L 170.417969 171.324219 L 170.417969 213.929688 L 127.8125 213.929688 Z M 127.8125 171.324219 " clip-rule="nonzero"/></clipPath><clipPath id="64240d5bb3"><path d="M 149.113281 171.324219 C 137.351562 171.324219 127.8125 180.859375 127.8125 192.625 C 127.8125 204.390625 137.351562 213.929688 149.113281 213.929688 C 160.878906 213.929688 170.417969 204.390625 170.417969 192.625 C 170.417969 180.859375 160.878906 171.324219 149.113281 171.324219 Z M 149.113281 171.324219 " clip-rule="nonzero"/></clipPath><clipPath id="9f9f052b20"><path d="M 0.8125 0.324219 L 43.417969 0.324219 L 43.417969 42.929688 L 0.8125 42.929688 Z M 0.8125 0.324219 " clip-rule="nonzero"/></clipPath><clipPath id="a4f30c7994"><path d="M 22.113281 0.324219 C 10.351562 0.324219 0.8125 9.859375 0.8125 21.625 C 0.8125 33.390625 10.351562 42.929688 22.113281 42.929688 C 33.878906 42.929688 43.417969 33.390625 43.417969 21.625 C 43.417969 9.859375 33.878906 0.324219 22.113281 0.324219 Z M 22.113281 0.324219 " clip-rule="nonzero"/></clipPath><clipPath id="cab84d3a30"><rect x="0" width="44" y="0" height="43"/></clipPath><clipPath id="7629319780"><path d="M 209.230469 109.683594 L 254.484375 109.683594 L 254.484375 154.9375 L 209.230469 154.9375 Z M 209.230469 109.683594 " clip-rule="nonzero"/></clipPath><clipPath id="7577812919"><path d="M 231.859375 109.683594 C 219.363281 109.683594 209.230469 119.8125 209.230469 132.3125 C 209.230469 144.808594 219.363281 154.9375 231.859375 154.9375 C 244.355469 154.9375 254.484375 144.808594 254.484375 132.3125 C 254.484375 119.8125 244.355469 109.683594 231.859375 109.683594 Z M 231.859375 109.683594 " clip-rule="nonzero"/></clipPath><clipPath id="78d23a7291"><path d="M 0.230469 0.683594 L 45.484375 0.683594 L 45.484375 45.9375 L 0.230469 45.9375 Z M 0.230469 0.683594 " clip-rule="nonzero"/></clipPath><clipPath id="d22a9cad41"><path d="M 22.859375 0.683594 C 10.363281 0.683594 0.230469 10.8125 0.230469 23.3125 C 0.230469 35.808594 10.363281 45.9375 22.859375 45.9375 C 35.355469 45.9375 45.484375 35.808594 45.484375 23.3125 C 45.484375 10.8125 35.355469 0.683594 22.859375 0.683594 Z M 22.859375 0.683594 " clip-rule="nonzero"/></clipPath><clipPath id="8e76effc71"><rect x="0" width="46" y="0" height="46"/></clipPath><clipPath id="96da7692d2"><path d="M 210.933594 219.980469 L 256.1875 219.980469 L 256.1875 265.234375 L 210.933594 265.234375 Z M 210.933594 219.980469 " clip-rule="nonzero"/></clipPath><clipPath id="03239df184"><path d="M 233.5625 219.980469 C 221.066406 219.980469 210.933594 230.113281 210.933594 242.609375 C 210.933594 255.105469 221.066406 265.234375 233.5625 265.234375 C 246.058594 265.234375 256.1875 255.105469 256.1875 242.609375 C 256.1875 230.113281 246.058594 219.980469 233.5625 219.980469 Z M 233.5625 219.980469 " clip-rule="nonzero"/></clipPath><clipPath id="d6e2ed27e3"><path d="M 0.933594 0.980469 L 46.1875 0.980469 L 46.1875 46.234375 L 0.933594 46.234375 Z M 0.933594 0.980469 " clip-rule="nonzero"/></clipPath><clipPath id="3fe965e6cf"><path d="M 23.5625 0.980469 C 11.066406 0.980469 0.933594 11.113281 0.933594 23.609375 C 0.933594 36.105469 11.066406 46.234375 23.5625 46.234375 C 36.058594 46.234375 46.1875 36.105469 46.1875 23.609375 C 46.1875 11.113281 36.058594 0.980469 23.5625 0.980469 Z M 23.5625 0.980469 " clip-rule="nonzero"/></clipPath><clipPath id="888d94141d"><rect x="0" width="47" y="0" height="47"/></clipPath></defs><g clip-path="url(#86cbf0f336)"><g clip-path="url(#d711d78691)"><g transform="matrix(1, 0, 0, 1, 51, 51)"><g clip-path="url(#a5628dbaab)"><g clip-path="url(#13edd5a73c)"><g clip-path="url(#01f2412678)"><path fill="url(#aa11b10994)" d="M 0.425781 0.425781 L 0.425781 281.574219 L 281.574219 281.574219 L 281.574219 0.425781 Z M 0.425781 0.425781 " fill-rule="nonzero"/></g></g></g></g></g></g><g clip-path="url(#fcee2f398e)"><g clip-path="url(#64240d5bb3)"><g transform="matrix(1, 0, 0, 1, 127, 171)"><g clip-path="url(#cab84d3a30)"><g clip-path="url(#9f9f052b20)"><g clip-path="url(#a4f30c7994)"><path fill="#ffffff" d="M 0.8125 0.324219 L 43.417969 0.324219 L 43.417969 42.929688 L 0.8125 42.929688 Z M 0.8125 0.324219 " fill-opacity="1" fill-rule="nonzero"/></g></g></g></g></g></g><path stroke-linecap="butt" transform="matrix(0.58396, -0.470628, 0.470628, 0.58396, 160.207919, 183.460049)" fill="none" stroke-linejoin="miter" d="M 0.000141614 6.496895 L 120.371037 6.499499 " stroke="#ffffff" stroke-width="13" stroke-opacity="1" stroke-miterlimit="4"/><g clip-path="url(#7629319780)"><g clip-path="url(#7577812919)"><g transform="matrix(1, 0, 0, 1, 209, 109)"><g clip-path="url(#8e76effc71)"><g clip-path="url(#78d23a7291)"><g clip-path="url(#d22a9cad41)"><path fill="#ffffff" d="M 0.230469 0.683594 L 45.484375 0.683594 L 45.484375 45.9375 L 0.230469 45.9375 Z M 0.230469 0.683594 " fill-opacity="1" fill-rule="nonzero"/></g></g></g></g></g></g><g clip-path="url(#96da7692d2)"><g clip-path="url(#03239df184)"><g transform="matrix(1, 0, 0, 1, 210, 219)"><g clip-path="url(#888d94141d)"><g clip-path="url(#d6e2ed27e3)"><g clip-path="url(#3fe965e6cf)"><path fill="#ffffff" d="M 0.933594 0.980469 L 46.1875 0.980469 L 46.1875 46.234375 L 0.933594 46.234375 Z M 0.933594 0.980469 " fill-opacity="1" fill-rule="nonzero"/></g></g></g></g></g></g><path stroke-linecap="butt" transform="matrix(0.652349, 0.370054, -0.370054, 0.652349, 164.680264, 195.139057)" fill="none" stroke-linejoin="miter" d="M -0.00198624 6.50048 L 119.721847 6.501041 " stroke="#ffffff" stroke-width="13" stroke-opacity="1" stroke-miterlimit="4"/></svg>
