<svg xmlns="http://www.w3.org/2000/svg" xmlns:xlink="http://www.w3.org/1999/xlink" width="512" zoomAndPan="magnify" viewBox="0 0 384 383.999986" height="512" preserveAspectRatio="xMidYMid meet" version="1.0"><defs><clipPath id="ec9c05951e"><path d="M 0.683594 0.683594 L 377.316406 0.683594 L 377.316406 377.316406 L 0.683594 377.316406 Z M 0.683594 0.683594 " clip-rule="nonzero"/></clipPath><clipPath id="9c3cf382fa"><path d="M 189 0.683594 C 84.996094 0.683594 0.683594 84.996094 0.683594 189 C 0.683594 293.003906 84.996094 377.316406 189 377.316406 C 293.003906 377.316406 377.316406 293.003906 377.316406 189 C 377.316406 84.996094 293.003906 0.683594 189 0.683594 Z M 189 0.683594 " clip-rule="nonzero"/></clipPath><clipPath id="b751aba23f"><path d="M 0.683594 0.683594 L 377.316406 0.683594 L 377.316406 377.316406 L 0.683594 377.316406 Z M 0.683594 0.683594 " clip-rule="nonzero"/></clipPath><clipPath id="99174ae025"><path d="M 189 0.683594 C 84.996094 0.683594 0.683594 84.996094 0.683594 189 C 0.683594 293.003906 84.996094 377.316406 189 377.316406 C 293.003906 377.316406 377.316406 293.003906 377.316406 189 C 377.316406 84.996094 293.003906 0.683594 189 0.683594 Z M 189 0.683594 " clip-rule="nonzero"/></clipPath><linearGradient x1="0" gradientTransform="matrix(1.471217, 0, 0, 1.471217, 0.684156, 0.684149)" y1="128" x2="255.999994" gradientUnits="userSpaceOnUse" y2="128" id="47d1f63caf"><stop stop-opacity="1" stop-color="rgb(0%, 29.019165%, 67.83905%)" offset="0"/><stop stop-opacity="1" stop-color="rgb(79.60968%, 42.349243%, 90.19928%)" offset="1"/></linearGradient><clipPath id="f832ed6322"><rect x="0" width="378" y="0" height="378"/></clipPath><clipPath id="d4184becaf"><path d="M 103.011719 161.300781 L 160.085938 161.300781 L 160.085938 218.375 L 103.011719 218.375 Z M 103.011719 161.300781 " clip-rule="nonzero"/></clipPath><clipPath id="cee44a15aa"><path d="M 131.550781 161.300781 C 115.789062 161.300781 103.011719 174.078125 103.011719 189.839844 C 103.011719 205.597656 115.789062 218.375 131.550781 218.375 C 147.3125 218.375 160.085938 205.597656 160.085938 189.839844 C 160.085938 174.078125 147.3125 161.300781 131.550781 161.300781 Z M 131.550781 161.300781 " clip-rule="nonzero"/></clipPath><clipPath id="9c36da8e0b"><path d="M 0.0117188 0.300781 L 57.085938 0.300781 L 57.085938 57.375 L 0.0117188 57.375 Z M 0.0117188 0.300781 " clip-rule="nonzero"/></clipPath><clipPath id="903e4f24a6"><path d="M 28.550781 0.300781 C 12.789062 0.300781 0.0117188 13.078125 0.0117188 28.839844 C 0.0117188 44.597656 12.789062 57.375 28.550781 57.375 C 44.3125 57.375 57.085938 44.597656 57.085938 28.839844 C 57.085938 13.078125 44.3125 0.300781 28.550781 0.300781 Z M 28.550781 0.300781 " clip-rule="nonzero"/></clipPath><clipPath id="ac7c3a2456"><rect x="0" width="58" y="0" height="58"/></clipPath><clipPath id="643140b48e"><path d="M 212.082031 78.730469 L 272.707031 78.730469 L 272.707031 139.351562 L 212.082031 139.351562 Z M 212.082031 78.730469 " clip-rule="nonzero"/></clipPath><clipPath id="aa464932c2"><path d="M 242.394531 78.730469 C 225.65625 78.730469 212.082031 92.300781 212.082031 109.039062 C 212.082031 125.78125 225.65625 139.351562 242.394531 139.351562 C 259.136719 139.351562 272.707031 125.78125 272.707031 109.039062 C 272.707031 92.300781 259.136719 78.730469 242.394531 78.730469 Z M 242.394531 78.730469 " clip-rule="nonzero"/></clipPath><clipPath id="7c9058b9a8"><path d="M 0.0820312 0.730469 L 60.707031 0.730469 L 60.707031 61.351562 L 0.0820312 61.351562 Z M 0.0820312 0.730469 " clip-rule="nonzero"/></clipPath><clipPath id="896c499b2d"><path d="M 30.394531 0.730469 C 13.65625 0.730469 0.0820312 14.300781 0.0820312 31.039062 C 0.0820312 47.78125 13.65625 61.351562 30.394531 61.351562 C 47.136719 61.351562 60.707031 47.78125 60.707031 31.039062 C 60.707031 14.300781 47.136719 0.730469 30.394531 0.730469 Z M 30.394531 0.730469 " clip-rule="nonzero"/></clipPath><clipPath id="20925e5ebb"><rect x="0" width="61" y="0" height="62"/></clipPath><clipPath id="4b27828865"><path d="M 214.363281 226.484375 L 274.988281 226.484375 L 274.988281 287.105469 L 214.363281 287.105469 Z M 214.363281 226.484375 " clip-rule="nonzero"/></clipPath><clipPath id="4542ca69f3"><path d="M 244.675781 226.484375 C 227.933594 226.484375 214.363281 240.054688 214.363281 256.796875 C 214.363281 273.535156 227.933594 287.105469 244.675781 287.105469 C 261.414062 287.105469 274.988281 273.535156 274.988281 256.796875 C 274.988281 240.054688 261.414062 226.484375 244.675781 226.484375 Z M 244.675781 226.484375 " clip-rule="nonzero"/></clipPath><clipPath id="4aeb78b256"><path d="M 0.363281 0.484375 L 60.988281 0.484375 L 60.988281 61.105469 L 0.363281 61.105469 Z M 0.363281 0.484375 " clip-rule="nonzero"/></clipPath><clipPath id="7c9a806c4b"><path d="M 30.675781 0.484375 C 13.933594 0.484375 0.363281 14.054688 0.363281 30.796875 C 0.363281 47.535156 13.933594 61.105469 30.675781 61.105469 C 47.414062 61.105469 60.988281 47.535156 60.988281 30.796875 C 60.988281 14.054688 47.414062 0.484375 30.675781 0.484375 Z M 30.675781 0.484375 " clip-rule="nonzero"/></clipPath><clipPath id="610472fea7"><rect x="0" width="61" y="0" height="62"/></clipPath><clipPath id="eaed764928"><rect x="0" width="378" y="0" height="378"/></clipPath></defs><g transform="matrix(1, 0, 0, 1, 3, 3)"><g clip-path="url(#eaed764928)"><g clip-path="url(#ec9c05951e)"><g clip-path="url(#9c3cf382fa)"><g><g clip-path="url(#f832ed6322)"><g clip-path="url(#b751aba23f)"><g clip-path="url(#99174ae025)"><path fill="url(#47d1f63caf)" d="M 0.683594 0.683594 L 0.683594 377.316406 L 377.316406 377.316406 L 377.316406 0.683594 Z M 0.683594 0.683594 " fill-rule="nonzero"/></g></g></g></g></g></g><g clip-path="url(#d4184becaf)"><g clip-path="url(#cee44a15aa)"><g transform="matrix(1, 0, 0, 1, 103, 161)"><g clip-path="url(#ac7c3a2456)"><g clip-path="url(#9c36da8e0b)"><g clip-path="url(#903e4f24a6)"><path fill="#ffffff" d="M 0.0117188 0.300781 L 57.085938 0.300781 L 57.085938 57.375 L 0.0117188 57.375 Z M 0.0117188 0.300781 " fill-opacity="1" fill-rule="nonzero"/></g></g></g></g></g></g><path stroke-linecap="butt" transform="matrix(0.782277, -0.630458, 0.630458, 0.782277, 146.411055, 177.559819)" fill="none" stroke-linejoin="miter" d="M -0.000886626 6.499171 L 120.374717 6.500564 " stroke="#ffffff" stroke-width="13" stroke-opacity="1" stroke-miterlimit="4"/><g clip-path="url(#643140b48e)"><g clip-path="url(#aa464932c2)"><g transform="matrix(1, 0, 0, 1, 212, 78)"><g clip-path="url(#20925e5ebb)"><g clip-path="url(#7c9058b9a8)"><g clip-path="url(#896c499b2d)"><path fill="#ffffff" d="M 0.0820312 0.730469 L 60.707031 0.730469 L 60.707031 61.351562 L 0.0820312 61.351562 Z M 0.0820312 0.730469 " fill-opacity="1" fill-rule="nonzero"/></g></g></g></g></g></g><g clip-path="url(#4b27828865)"><g clip-path="url(#4542ca69f3)"><g transform="matrix(1, 0, 0, 1, 214, 226)"><g clip-path="url(#610472fea7)"><g clip-path="url(#4aeb78b256)"><g clip-path="url(#7c9a806c4b)"><path fill="#ffffff" d="M 0.363281 0.484375 L 60.988281 0.484375 L 60.988281 61.105469 L 0.363281 61.105469 Z M 0.363281 0.484375 " fill-opacity="1" fill-rule="nonzero"/></g></g></g></g></g></g><path stroke-linecap="butt" transform="matrix(0.873893, 0.495728, -0.495728, 0.873893, 152.402265, 193.205096)" fill="none" stroke-linejoin="miter" d="M 0.00034788 6.501313 L 119.722145 6.49929 " stroke="#ffffff" stroke-width="13" stroke-opacity="1" stroke-miterlimit="4"/></g></g></svg>
